<svg xmlns="http://www.w3.org/2000/svg" width="35.096" height="32.448" viewBox="0 0 35.096 32.448"><defs><style>.a{fill:#58bc36;}</style></defs><g transform="translate(0 8.589)"><path class="a" d="M283.789,423.184H250.6a.955.955,0,0,1-.954-.954v-21.95a.955.955,0,0,1,.954-.954h12.867v1.909H251.556v20.041h31.279V401.234h-11.01v-1.909h11.965a.954.954,0,0,1,.954.954v21.95A.954.954,0,0,1,283.789,423.184Z" transform="translate(-249.647 -399.325)"/></g><g transform="translate(0.231)"><path class="a" d="M251.337,400.49l-1.448-1.243,7.374-8.589a.953.953,0,0,1,.724-.333h19.36a.955.955,0,0,1,.763.381l6.453,8.589-1.526,1.147-6.167-8.208H258.426Z" transform="translate(-249.889 -390.325)"/></g><g transform="translate(16.594 0.954)"><rect class="a" width="1.909" height="9.543"/></g><g transform="translate(16.594 16.224)"><path class="a" d="M268.944,416.868h-1.909v-8.589a.954.954,0,0,1,1.562-.735l4.61,3.817-1.217,1.47-3.046-2.522Z" transform="translate(-267.035 -407.325)"/></g><g transform="translate(12.33 16.444)"><rect class="a" width="5.985" height="1.908" transform="matrix(0.77, -0.638, 0.638, 0.77, 0, 3.817)"/></g></svg>