<svg xmlns="http://www.w3.org/2000/svg" width="28.336" height="26.198" viewBox="0 0 28.336 26.198"><defs><style>.a{fill:#fd8e69;}</style></defs><g transform="translate(0 6.935)"><path class="a" d="M277.213,418.588h-26.8a.771.771,0,0,1-.771-.771V400.1a.771.771,0,0,1,.771-.771h10.389v1.541h-9.618v16.181h25.254V400.866h-8.89v-1.541h9.66a.77.77,0,0,1,.771.771v17.722A.77.77,0,0,1,277.213,418.588Z" transform="translate(-249.647 -399.325)"/></g><g transform="translate(0.186)"><path class="a" d="M251.058,398.532l-1.169-1,5.954-6.935a.769.769,0,0,1,.585-.269h15.631a.771.771,0,0,1,.616.307l5.21,6.935-1.232.926-4.979-6.627H256.781Z" transform="translate(-249.889 -390.325)"/></g><g transform="translate(13.398 0.771)"><rect class="a" width="1.541" height="7.705"/></g><g transform="translate(14.946 20.692) rotate(-180)"><path class="a" d="M268.576,415.03h-1.541V408.1a.77.77,0,0,1,1.261-.593l3.722,3.082-.982,1.187-2.46-2.037Z" transform="translate(-267.035 -407.325)"/></g><g transform="translate(18.389 20.515) rotate(-180)"><rect class="a" width="4.832" height="1.541" transform="matrix(0.77, -0.638, 0.638, 0.77, 0, 3.082)"/></g></svg>